<?xml version="1.0" encoding="UTF-8" standalone="no"?>
<!-- Generator: Adobe Illustrator 16.0.0, SVG Export Plug-In . SVG Version: 6.00 Build 0)  -->

<svg
   xmlns:dc="http://purl.org/dc/elements/1.1/"
   xmlns:cc="http://creativecommons.org/ns#"
   xmlns:rdf="http://www.w3.org/1999/02/22-rdf-syntax-ns#"
   xmlns:svg="http://www.w3.org/2000/svg"
   xmlns="http://www.w3.org/2000/svg"
   xmlns:sodipodi="http://sodipodi.sourceforge.net/DTD/sodipodi-0.dtd"
   xmlns:inkscape="http://www.inkscape.org/namespaces/inkscape"
   version="1.1"
   id="Layer_1"
   x="0px"
   y="0px"
   width="135"
   height="40.560001"
   viewBox="0 0 135 40.560002"
   enable-background="new 0 0 128.741 40.557"
   xml:space="preserve"
   inkscape:version="0.48.3.1 r9886"
   sodipodi:docname="logo.svg"><metadata
   id="metadata3117"><rdf:RDF><cc:Work
       rdf:about=""><dc:format>image/svg+xml</dc:format><dc:type
         rdf:resource="http://purl.org/dc/dcmitype/StillImage" /></cc:Work></rdf:RDF></metadata><defs
   id="defs3115" /><sodipodi:namedview
   pagecolor="#ffffff"
   bordercolor="#666666"
   borderopacity="1"
   objecttolerance="10"
   gridtolerance="10"
   guidetolerance="10"
   inkscape:pageopacity="0"
   inkscape:pageshadow="2"
   inkscape:window-width="2511"
   inkscape:window-height="1416"
   id="namedview3113"
   showgrid="false"
   inkscape:zoom="12.885348"
   inkscape:cx="49.572801"
   inkscape:cy="18.153806"
   inkscape:window-x="49"
   inkscape:window-y="24"
   inkscape:window-maximized="1"
   inkscape:current-layer="Layer_1" />
<g
   id="g3091"
   transform="translate(0,0.00300079)">
	<polygon
   points="18.438,0 2.721,0 0,13.803 15.648,13.803 10.243,40.557 20.385,40.557 28.58,0 25.381,0 "
   id="polygon3093"
   style="fill:#283953" />
	<polygon
   points="31.431,0 28.708,13.803 33.473,13.803 36.195,0 "
   id="polygon3095"
   style="fill:#283953" />
	<path
   d="m 39.025,16.799 h -5.892 -4.816 l -4.824,23.757 h 4.816 l 1.544,-7.604 h 6.013 3.15 1.666 l 3.159,-16.153 h -4.816 z m -8.193,11.337 1.324,-6.521 h 5.928 l -1.275,6.521 h -5.977 z"
   id="path3097"
   inkscape:connector-curvature="0"
   style="fill:#283953" />
	<polygon
   points="41.978,40.557 41.984,40.557 46.793,40.557 46.801,40.557 46.804,40.541 56.154,26.998 53.401,40.557 58.217,40.557 62.977,17.114 63.194,16.799 63.041,16.799 58.378,16.799 58.224,16.799 58.16,17.116 48.81,30.659 51.624,16.799 46.809,16.799 41.987,40.543 "
   id="polygon3099"
   style="fill:#283953" />
	<polygon
   points="74.217,31.087 73.271,35.74 62.338,35.74 61.36,40.557 72.294,40.557 77.109,40.557 77.118,40.557 78.107,35.74 78.088,35.74 81.934,16.799 77.118,16.799 75.195,26.27 69.073,26.27 71,16.799 66.184,16.799 63.278,31.087 66.184,31.087 68.094,31.087 "
   id="polygon3101"
   style="fill:#283953" />
	<polygon
   points="90.159,28.44 92.16,32.952 92.195,32.905 92.217,32.952 95.388,28.679 95.389,28.678 95.389,28.678 97.574,25.732 94.563,40.557 99.381,40.557 104.203,16.799 99.389,16.799 93.365,24.367 89.813,16.799 84.997,16.799 80.174,40.557 84.989,40.557 88.3,24.248 90.146,28.412 90.146,28.412 "
   id="polygon3103"
   style="fill:#283953" />
	<polygon
   points="43.401,0 38.636,0 35.915,13.803 40.679,13.803 "
   id="polygon3105"
   style="fill:#283953" />
	<polygon
   points="50.546,0 45.781,0 43.061,13.803 47.824,13.803 "
   id="polygon3107"
   style="fill:#283953" />
	<path
   d="m 116.41,12.78 c -6.811,0 -12.33,5.521 -12.33,12.331 0,4.682 2.608,8.755 6.451,10.842 l 1.03,-5.075 c -1.642,-1.383 -2.688,-3.451 -2.688,-5.767 0,-4.162 3.375,-7.536 7.537,-7.536 4.163,0 7.538,3.375 7.538,7.536 0,3.53 -2.431,6.485 -5.706,7.304 l -1.015,4.998 c 6.429,-0.422 11.514,-5.767 11.514,-12.302 0,-6.81 -5.521,-12.331 -12.331,-12.331 z"
   id="path3109"
   inkscape:connector-curvature="0"
   style="fill:#283953" />
	<path
   d="m 116.203,19.622 c -0.43,0 -0.851,0.038 -1.26,0.106 l -4.258,20.829 h 4.816 l 4.112,-20.118 c -1.023,-0.522 -2.182,-0.817 -3.41,-0.817 z"
   id="path3111"
   inkscape:connector-curvature="0"
   style="fill:#283953" />
</g>
</svg>